<svg viewBox="0 0 64 64" xmlns="http://www.w3.org/2000/svg"><circle cx="32" cy="32" r="32" fill="#3f6b5f"/><ellipse cx="22" cy="14" rx="5" ry="11" fill="#fff"/><ellipse cx="42" cy="14" rx="5" ry="11" fill="#fff"/><ellipse cx="22" cy="15" rx="2.1" ry="6.2" fill="#f3c9d4"/><ellipse cx="42" cy="15" rx="2.1" ry="6.2" fill="#f3c9d4"/><path d="M32 26c-9 0-15 6.5-15 17 0 8.5 4.5 15 8.5 15 2.8 0 3.7-2.8 6.5-2.8s3.7 2.8 6.5 2.8c4 0 8.5-6.5 8.5-15 0-10.5-6-17-15-17z" fill="#fff"/><circle cx="26.5" cy="40" r="2" fill="#2c2a26"/><circle cx="37.5" cy="40" r="2" fill="#2c2a26"/><path d="M32 45v4M29 48h6" stroke="#3f6b5f" stroke-width="2" stroke-linecap="round"/></svg>
